<?xml version="1.0" encoding="UTF-8"?>
<svg id="_圖層_1" xmlns="http://www.w3.org/2000/svg" version="1.1" viewBox="0 0 120 120">
  <!-- Generator: Adobe Illustrator 29.0.0, SVG Export Plug-In . SVG Version: 2.1.0 Build 186)  -->
  <defs>
    <style>
      .st0, .st1, .st2, .st3 {
        stroke-miterlimit: 10;
        stroke-width: .2px;
      }

      .st0, .st2 {
        fill: none;
      }

      .st0, .st3 {
        stroke: #888;
      }

      .st1 {
        fill: #333;
      }

      .st1, .st2 {
        stroke: #333;
      }

      .st3 {
        fill: #888;
      }
    </style>
  </defs>
  <path class="st0" d="M110,60c0,27.6-22.4,50-50,50-27.6,0-50-22.4-50-50,0-27.6,22.4-50,50-50,27.6,0,50,22.4,50,50Z"/>
  <circle class="st2" cx="60" cy="60" r="42.5"/>
  <circle class="st1" cx="60" cy="10" r="1.2"/>
  <circle class="st3" cx="24.6" cy="24.6" r=".8"/>
  <circle class="st3" cx="10" cy="60" r=".8"/>
  <circle class="st3" cx="24.6" cy="95.4" r=".8"/>
  <circle class="st3" cx="60" cy="110" r=".7"/>
  <circle class="st3" cx="95.4" cy="95.4" r=".7"/>
  <circle class="st3" cx="110" cy="60" r=".7"/>
  <circle class="st3" cx="95.4" cy="24.6" r=".7"/>
  <path class="st1" d="M60.5,17.5c0,.3-.2.5-.5.5s-.5-.2-.5-.5.2-.5.5-.5.5.2.5.5Z"/>
  <circle class="st1" cx="54.1" cy="17.9" r=".5"/>
  <circle class="st1" cx="48.3" cy="19.2" r=".5"/>
  <circle class="st1" cx="42.7" cy="21.2" r=".5"/>
  <circle class="st1" cx="37.4" cy="24" r=".5"/>
  <circle class="st1" cx="32.6" cy="27.5" r=".5"/>
  <circle class="st1" cx="28.3" cy="31.6" r=".5"/>
  <circle class="st1" cx="24.7" cy="36.3" r=".5"/>
  <circle class="st1" cx="21.7" cy="41.4" r=".5"/>
  <circle class="st1" cx="19.5" cy="46.9" r=".5"/>
  <circle class="st1" cx="18" cy="52.7" r=".5"/>
  <circle class="st1" cx="17.4" cy="58.6" r=".5"/>
  <circle class="st1" cx="17.6" cy="64.6" r=".5"/>
  <circle class="st1" cx="18.7" cy="70.4" r=".5"/>
  <circle class="st1" cx="20.5" cy="76.1" r=".5"/>
  <circle class="st1" cx="23.1" cy="81.4" r=".5"/>
  <circle class="st1" cx="26.4" cy="86.3" r=".5"/>
  <circle class="st1" cx="30.4" cy="90.8" r=".5"/>
  <circle class="st1" cx="35" cy="94.6" r=".5"/>
  <circle class="st1" cx="40" cy="97.7" r=".5"/>
  <circle class="st1" cx="45.4" cy="100.1" r=".5"/>
  <circle class="st1" cx="51.1" cy="101.8" r=".5"/>
  <circle class="st1" cx="57" cy="102.6" r=".5"/>
  <circle class="st1" cx="63" cy="102.6" r=".5"/>
  <circle class="st1" cx="68.9" cy="101.8" r=".5"/>
  <circle class="st1" cx="74.6" cy="100.1" r=".5"/>
  <circle class="st1" cx="80" cy="97.7" r=".5"/>
  <circle class="st1" cx="85" cy="94.6" r=".5"/>
  <circle class="st1" cx="89.6" cy="90.8" r=".5"/>
  <circle class="st1" cx="93.6" cy="86.3" r=".5"/>
  <circle class="st1" cx="96.9" cy="81.4" r=".5"/>
  <circle class="st1" cx="99.5" cy="76.1" r=".5"/>
  <circle class="st1" cx="101.3" cy="70.4" r=".5"/>
  <circle class="st1" cx="102.4" cy="64.6" r=".5"/>
  <circle class="st1" cx="102.6" cy="58.6" r=".5"/>
  <circle class="st1" cx="102" cy="52.7" r=".5"/>
  <circle class="st1" cx="100.5" cy="46.9" r=".5"/>
  <circle class="st1" cx="98.3" cy="41.4" r=".5"/>
  <circle class="st1" cx="95.3" cy="36.3" r=".5"/>
  <circle class="st1" cx="91.7" cy="31.6" r=".5"/>
  <circle class="st1" cx="87.4" cy="27.5" r=".5"/>
  <circle class="st1" cx="82.6" cy="24" r=".5"/>
  <circle class="st1" cx="77.3" cy="21.2" r=".5"/>
  <circle class="st1" cx="71.7" cy="19.2" r=".5"/>
  <circle class="st1" cx="65.9" cy="17.9" r=".5"/>
  <circle class="st3" cx="60" cy="4" r=".8"/>
  <circle class="st3" cx="99.6" cy="20.4" r=".8"/>
  <circle class="st3" cx="20.4" cy="20.4" r=".8"/>
</svg>